<svg xmlns="http://www.w3.org/2000/svg" width="700" height="102" version="1.2" viewBox="0 0 699 102"><path fill-rule="evenodd" d="M0 3.42h15.02v94.75h20.93v2.8H0zm50.53 97.56L100.42.37l49.7 100.61h-16.87l-7.95-16.23H61.79l-7.95 16.23zm12.72-19.03h60.71L93.74 20.67zM216.74 3.36v94.82h20.93v2.73h-35.95V3.36zm32.71 97.55L299.27.37l49.77 100.54h-16.87l-7.95-16.16h-63.45l-7.95 16.16zm12.66-18.96h60.71L292.6 20.67zM400.58 3.36h15.02v94.75h20.93v2.8h-35.95zm44.99 97.55L495.4.31l49.7 100.6h-16.8l-7.89-16.16H456.9l-7.96 16.16zm12.67-18.96h60.7l-30.22-61.28zM624.65 3.36v97.49h-3.06V76.29l-55.17-50.66v75.22h-3.06V2.53l58.3 53.77V3.36zm31.56 98.76h-2.36V2.09h2.36c25.52 0 42.19 25.64 42.19 50.08 0 24.37-16.67 49.95-42.19 49.95m12.66-94.31v88.58c11.14-3.43 26.48-22.08 26.48-44.22 0-22.15-15.34-40.86-26.48-44.36" style="fill:#fff"/></svg>